# xmcd
#
# Track frame offsets:
#	150
#	14599
#	29593
#	43380
#	61305
#	77761
#	93751
#	111090
#	124155
#	137809
#	150667
#
# Disc length: 2252 seconds
#
# Revision: 1
# Processed by: cddbd v1.5.2PL0 Copyright (c) Steve Scherf et al.
# Submitted via: audiograbber 1.83.01
#
DISCID=9208ca0b
DTITLE=Shane Owens - Where I'm Comin' From
DYEAR=2016
DGENRE=Country
TTITLE0=Where I'm Comin' From
TTITLE1=All the Beer In Alabama
TTITLE2=Country Boy Can
TTITLE3=Blame it on a Woman
TTITLE4=Alcohol of Fame
TTITLE5=Country Never Goes Out of Style
TTITLE6=God and the Ground She Walks On
TTITLE7=Chicken Truck
TTITLE8=Nashville You Ain't Hollywood
TTITLE9=19
TTITLE10=Where I'mComin' From (Extended)
EXTD=
EXTT0=
EXTT1=
EXTT2=
EXTT3=
EXTT4=
EXTT5=
EXTT6=
EXTT7=
EXTT8=
EXTT9=
EXTT10=
PLAYORDER=
